<?xml version="1.0" encoding="UTF-8" standalone="no"?>
<!-- Created with Inkscape (http://www.inkscape.org/) -->

<svg
   xmlns:dc="http://purl.org/dc/elements/1.1/"
   xmlns:cc="http://creativecommons.org/ns#"
   xmlns:rdf="http://www.w3.org/1999/02/22-rdf-syntax-ns#"
   xmlns:svg="http://www.w3.org/2000/svg"
   xmlns="http://www.w3.org/2000/svg"
   xmlns:sodipodi="http://sodipodi.sourceforge.net/DTD/sodipodi-0.dtd"
   xmlns:inkscape="http://www.inkscape.org/namespaces/inkscape"
   width="360"
   height="120"
   id="svg2"
   version="1.1"
   inkscape:version="0.48.4 r9939"
   sodipodi:docname="banner.svg">
  <defs
     id="defs4" />
  <sodipodi:namedview
     id="base"
     pagecolor="#ffffff"
     bordercolor="#666666"
     borderopacity="1.0"
     inkscape:pageopacity="0.0"
     inkscape:pageshadow="2"
     inkscape:zoom="3.959798"
     inkscape:cx="251.75204"
     inkscape:cy="42.119626"
     inkscape:document-units="px"
     inkscape:current-layer="layer1"
     showgrid="false"
     inkscape:window-width="974"
     inkscape:window-height="579"
     inkscape:window-x="50"
     inkscape:window-y="0"
     inkscape:window-maximized="1"
     fit-margin-left="-0.4" />
  <metadata
     id="metadata7">
    <rdf:RDF>
      <cc:Work
         rdf:about="">
        <dc:format>image/svg+xml</dc:format>
        <dc:type
           rdf:resource="http://purl.org/dc/dcmitype/StillImage" />
        <dc:title />
      </cc:Work>
    </rdf:RDF>
  </metadata>
  <g
     inkscape:label="Layer 1"
     inkscape:groupmode="layer"
     id="layer1"
     transform="translate(0,-932.36218)">
    <g
       id="g4207"
       transform="matrix(0.15282998,0,0,0.15783359,13.471314,931.95225)">
      <path
         inkscape:connector-curvature="0"
         id="path4072-0"
         d="M 528.53125,58.90625 C 351.45313,92.218665 168.0425,92.214585 -9.03125,58.875 c -5.354671,28.197818 -10.717356,56.39413 -16.0625,84.59375 43.755019,7.64139 87.669456,14.47005 131.84375,18.90625 0.43842,9.0243 0.58909,18.05957 0.59375,27.09375 -20.208333,0 -40.416667,0 -60.625,0 0,28.65625 0,57.3125 0,85.96875 18.302083,0 36.604167,0 54.90625,0 -8.828027,70.22822 -29.770669,138.47239 -56.34375,203.9375 27.481253,9.75355 54.94116,19.55121 82.375,29.4375 30.8638,-74.6335 52.94794,-153.11664 62.53125,-233.375 49.375,0 98.75,0 148.125,0 9.7178,78.8515 31.80061,155.74563 61.9375,229.125 27.47683,-9.85358 54.96537,-19.65844 82.46875,-29.4375 -26.18611,-64.12309 -46.65234,-130.87999 -55.84375,-199.6875 14.73958,0 29.47917,0 44.21875,0 0,-28.65625 0,-57.3125 0,-85.96875 -16.8125,0 -33.625,0 -50.4375,0 -0.10821,-9.31352 0.0358,-18.6308 0.40625,-27.9375 41.9444,-4.36771 83.60568,-11.12042 125.28125,-17.6875 -5.29567,-28.43481 -10.56009,-56.875493 -15.84375,-85.3125 -0.65625,0.125 -1.3125,0.25 -1.96875,0.375 z M 333,171.6875 c -0.13956,5.92614 -0.18018,11.85365 -0.15625,17.78125 -6.30208,0 -12.60417,0 -18.90625,0 0,-6.85417 0,-13.70833 0,-20.5625 6.37849,-0.14427 12.75346,-0.42351 19.125,-0.75 -0.0208,1.17708 -0.0417,2.35417 -0.0625,3.53125 z M 200.5,168.75 c 8.54824,0.36959 17.1014,0.62847 25.65625,0.78125 0,6.64583 0,13.29167 0,19.9375 -10.34375,0 -20.6875,0 -31.03125,0 -0.0725,-6.97935 -0.31492,-13.95699 -0.3125,-20.9375 1.89583,0.0729 3.79167,0.14583 5.6875,0.21875 z"
         style="font-size:medium;font-style:normal;font-variant:normal;font-weight:normal;font-stretch:normal;text-indent:0;text-align:start;text-decoration:none;line-height:normal;letter-spacing:normal;word-spacing:normal;text-transform:none;direction:ltr;block-progression:tb;writing-mode:lr-tb;text-anchor:start;baseline-shift:baseline;color:#000000;fill:#000000;fill-opacity:1;fill-rule:evenodd;stroke:none;stroke-width:30;marker:none;visibility:visible;display:inline;overflow:visible;enable-background:accumulate;font-family:Sans;-inkscape-font-specification:Sans" />
      <path
         inkscape:connector-curvature="0"
         id="path4072"
         d="M 515.10666,83.793964 C 341.19729,113.30166 173.44637,112.09683 10.658045,83.837764 L 2.8594056,125.10911 c 42.0006604,7.29108 84.3254704,12.82912 127.0128744,16.56974 1.64494,23.43504 2.02157,46.51313 1.27697,69.29563 l -60.245604,0 0,41.97086 57.600454,0 c -6.9663,73.58224 -25.57518,144.08959 -52.310154,212.87094 l 41.045464,14.64608 c 28.27568,-72.74518 48.09125,-148.33424 55.18333,-227.51702 l 187.85135,0 c 7.40728,77.64288 26.99779,151.81897 54.77287,223.27621 l 41.04546,-14.64608 C 429.87131,394.11613 411.46353,324.99828 404.19272,252.94533 l 47.06546,0 0,-41.97086 -49.98424,0 c -0.89747,-23.02712 -0.62822,-46.34718 0.91212,-70.03886 39.89273,-3.67311 80.06678,-8.91614 120.53681,-15.78279 L 515.10666,83.794034 z M 358.1306,144.38939 c -1.26585,22.48356 -1.44933,44.67389 -0.63848,66.58501 l -63.39242,0 0,-63.91811 c 21.26287,-0.45672 42.60128,-1.3078 64.0309,-2.6669 z m -184.20286,0.48092 c 25.34489,1.47372 50.80319,2.30308 76.39014,2.49201 l 0,63.61208 -75.38681,0 c 0.67726,-21.75601 0.36968,-43.78546 -1.00333,-66.10409 z"
         style="font-size:medium;font-style:normal;font-variant:normal;font-weight:normal;font-stretch:normal;text-indent:0;text-align:start;text-decoration:none;line-height:normal;letter-spacing:normal;word-spacing:normal;text-transform:none;direction:ltr;block-progression:tb;writing-mode:lr-tb;text-anchor:start;baseline-shift:baseline;color:#000000;fill:#ff2a2a;fill-opacity:1;fill-rule:evenodd;stroke:none;stroke-width:30;marker:none;visibility:visible;display:inline;overflow:visible;enable-background:accumulate;font-family:Sans;-inkscape-font-specification:Sans" />
    </g>
    <path
       inkscape:connector-curvature="0"
       style="fill:#ffff00;stroke:none"
       d="m 71.061237,965.21139 c -0.918636,0.37625 -1.834256,0.79272 -2.735239,1.24969 l -2.0268,1.11281 c -13.587762,8.00346 -20.564069,23.61901 -18.877779,39.32681 -1.057751,0.1866 -2.10097,0.5252 -3.10796,1.0348 l -0.614139,0.3356 c -5.379031,3.1567 -7.349589,10.2071 -4.496205,16.0864 2.977691,6.1353 10.093683,8.7314 15.893966,5.7961 0.497755,-0.2519 0.967509,-0.5402 1.412401,-0.8537 8.380163,10.69 21.095316,16.4242 33.755141,15.5793 l -0.6933,0.7814 5.498307,0.3751 19.33201,-7.3921 14.25038,-15.7997 4.41598,-21.4044 -0.89884,-3.10745 c 2.68349,-3.15205 3.49467,-7.36743 1.71172,-10.90481 -2.40366,-4.76889 -8.65487,-6.57726 -14.23424,-4.24789 -10.1755,-17.58106 -30.850387,-25.23169 -48.585403,-17.96796 z"
       id="path3998-4-6" />
    <path
       style="color:#000000;fill:#ffd800;fill-opacity:1;fill-rule:evenodd;stroke:none;stroke-width:1px;marker:none;visibility:visible;display:inline;overflow:visible;enable-background:accumulate"
       d="m 41.307592,1025.5215 -1.491899,-7.0839 2.399777,-7.1374 3.880361,-3.2883 0.583026,-10.12252 c 28.012959,31.67592 69.069423,12.68772 84.476073,-8.61793 4.26778,-3.21183 3.72256,2.07573 4.19768,5.56147 l -3.78888,1.09514 -0.62088,18.80124 -12.32915,20.619 -23.39022,11.4983 -20.553478,-2.6106 -16.05742,-9.525 -5.282237,-5.8868 -6.212468,0.4432 -4.82522,-2.5743 z"
       id="path4049"
       inkscape:connector-curvature="0"
       sodipodi:nodetypes="ccccccccccccccccc" />
    <path
       style="font-size:medium;font-style:normal;font-variant:normal;font-weight:normal;font-stretch:normal;text-indent:0;text-align:start;text-decoration:none;line-height:normal;letter-spacing:normal;word-spacing:normal;text-transform:none;direction:ltr;block-progression:tb;writing-mode:lr-tb;text-anchor:start;baseline-shift:baseline;color:#000000;fill:#000000;fill-opacity:1;stroke:none;stroke-width:5.66729593;marker:none;visibility:visible;display:inline;overflow:visible;enable-background:accumulate;font-family:Sans;-inkscape-font-specification:Sans"
       d="m 73.937485,959.80352 c -19.671793,7.0875 -32.414337,27.43417 -29.398715,49.19208 a 1.6817441,1.7040863 0 1 0 3.331051,-0.4719 c -3.193675,-23.04284 12.616196,-44.30207 35.356932,-47.53807 15.163457,-2.15777 30.262137,4.31546 39.304637,16.83681 a 1.6840127,1.7063851 0 0 0 2.71306,-2.02222 c -9.7705,-13.52945 -26.09918,-20.52141 -42.483447,-18.18993 -3.067528,0.4365 -6.013259,1.18074 -8.823518,2.19323 z"
       id="path3897"
       inkscape:connector-curvature="0" />
    <path
       style="font-size:medium;font-style:normal;font-variant:normal;font-weight:normal;font-stretch:normal;text-indent:0;text-align:start;text-decoration:none;line-height:normal;letter-spacing:normal;word-spacing:normal;text-transform:none;direction:ltr;block-progression:tb;writing-mode:lr-tb;text-anchor:start;baseline-shift:baseline;color:#000000;fill:#000000;fill-opacity:1;stroke:none;stroke-width:23.0560627;marker:none;visibility:visible;display:inline;overflow:visible;enable-background:accumulate;font-family:Sans;-inkscape-font-specification:Sans"
       d="m 44.191522,1007.876 c -6.115251,2.9586 -8.722724,10.4273 -5.802949,16.6239 2.919682,6.1965 10.29234,8.8429 16.407574,5.8844 a 1.7048251,1.6824725 89.990528 0 0 -1.448092,-3.0777 c -4.475453,2.1652 -9.78952,0.2626 -11.926339,-4.2723 -2.136819,-4.535 -0.259218,-9.9196 4.216195,-12.0848 0.360749,-0.1745 0.734233,-0.3222 1.11477,-0.4462 a 1.7039643,1.6816232 89.990538 1 0 -1.028109,-3.2448 c -0.523598,0.1708 -1.036682,0.3774 -1.53305,0.6175 z"
       id="path3897-6"
       inkscape:connector-curvature="0" />
    <path
       style="font-size:medium;font-style:normal;font-variant:normal;font-weight:normal;font-stretch:normal;text-indent:0;text-align:start;text-decoration:none;line-height:normal;letter-spacing:normal;word-spacing:normal;text-transform:none;direction:ltr;block-progression:tb;writing-mode:lr-tb;text-anchor:start;baseline-shift:baseline;color:#000000;fill:#000000;fill-opacity:1;stroke:none;stroke-width:23.0560627;marker:none;visibility:visible;display:inline;overflow:visible;enable-background:accumulate;font-family:Sans;-inkscape-font-specification:Sans"
       d="m 124.61782,974.68967 c -0.38856,0.14741 -0.77057,0.31503 -1.15008,0.50558 a 1.7036592,1.681322 89.990533 1 0 1.49119,3.05017 c 4.44376,-2.2312 9.78302,-0.40394 11.98498,4.09888 2.20196,4.5028 0.39869,9.91298 -4.04507,12.14418 -0.44724,0.22456 -0.91148,0.41278 -1.38939,0.55873 a 1.7036592,1.681322 89.990533 1 0 0.96974,3.25863 c 0.65757,-0.20082 1.30139,-0.45564 1.91676,-0.76463 6.07196,-3.04872 8.57113,-10.55699 5.56236,-16.70963 -2.82072,-5.76809 -9.51228,-8.3532 -15.34049,-6.14191 z"
       id="path3897-6-8"
       inkscape:connector-curvature="0" />
    <path
       style="font-size:medium;font-style:normal;font-variant:normal;font-weight:normal;font-stretch:normal;text-indent:0;text-align:start;text-decoration:none;line-height:normal;letter-spacing:normal;word-spacing:normal;text-transform:none;direction:ltr;block-progression:tb;writing-mode:lr-tb;text-anchor:start;baseline-shift:baseline;color:#000000;fill:#000000;fill-opacity:1;stroke:none;stroke-width:5.66729593;marker:none;visibility:visible;display:inline;overflow:visible;enable-background:accumulate;font-family:Sans;-inkscape-font-specification:Sans"
       d="m 131.1796,995.20728 a 1.6813223,1.7036589 0 0 0 -0.93048,1.77888 c 3.10041,23.05584 -12.80004,44.25414 -35.55364,47.39554 -15.052211,2.0783 -30.012018,-4.3192 -39.032222,-16.7051 a 1.6840186,1.7063912 0 0 0 -2.713067,2.0222 c 9.746514,13.3833 25.929608,20.3109 42.193839,18.0653 24.55412,-3.3901 41.78885,-26.3522 38.4431,-51.23245 a 1.6813223,1.7036589 0 0 0 -2.40753,-1.32437 z"
       id="path3897-1"
       inkscape:connector-curvature="0" />
    <path
       style="font-size:medium;font-style:normal;font-variant:normal;font-weight:normal;font-stretch:normal;text-indent:0;text-align:start;text-decoration:none;line-height:normal;letter-spacing:normal;word-spacing:normal;text-transform:none;direction:ltr;block-progression:tb;writing-mode:lr-tb;text-anchor:start;baseline-shift:baseline;color:#000000;fill:#000000;fill-opacity:1;stroke:none;stroke-width:50;marker:none;visibility:visible;display:inline;overflow:visible;enable-background:accumulate;font-family:Sans;-inkscape-font-specification:Sans"
       d="m 80.582763,1004.119 -4.791931,11.1452 c 7.751201,1.2591 11.519981,4.9385 14.686951,10.5547 3.16695,5.6162 5.052367,13.0215 8.305247,19.9652 l 1.31532,-0.5967 12.60558,-4.6416 c -2.41927,-7.2848 -6.13635,-13.9333 -7.70752,-20.2026 -1.57117,-6.2694 -1.3843,-11.5752 3.32926,-17.9361 l -11.08705,-4.64582 c -2.59269,3.49882 -4.275807,6.97912 -5.279767,10.36742 -3.1419,-1.8651 -6.89271,-3.2815 -11.37609,-4.0097 z"
       id="path3828-1-5"
       inkscape:connector-curvature="0" />
    <path
       style="color:#000000;fill:#ffffff;fill-opacity:1;fill-rule:evenodd;stroke:none;stroke-width:1px;marker:none;visibility:visible;display:inline;overflow:visible;enable-background:accumulate"
       d="m 107.98456,969.45363 c 10.32987,8.08907 0.18443,18.22226 -16.077217,27.11919 16.590537,0.10601 36.681837,-16.83106 38.556057,-12.93555 z"
       id="path4043"
       inkscape:connector-curvature="0"
       sodipodi:nodetypes="cccc" />
    <g
       id="g4282"
       transform="matrix(0.22415435,0,0,0.28095098,259.35273,916.83993)">
      <path
         inkscape:connector-curvature="0"
         id="text4213-6"
         d="m 72.665179,120.29464 c -8.949367,-0.29204 -18.147639,0.24591 -25.96875,4.875 -10.249569,4.01419 -21.53357,4.71546 -32.53125,4.40625 -1.801983,11.91095 -3.554785,23.83004 -5.5000004,35.71875 4.8630914,1.7217 10.2345514,-0.66854 14.9375004,1.34375 -2.554448,26.32579 -8.057356,52.3175 -11.390235,78.53367 -3.4896134,22.86615 -6.9351644,45.73931 -10.5160154,68.59133 14.8854174,0 29.7708334,0 44.6562504,0 -0.646416,-3.20448 -0.119706,-4.05557 2.4375,-2 21.347673,9.93718 47.41276,0.57643 62.000001,-16.65625 6.48795,-6.93693 11.76724,-14.96372 15.75,-23.53125 4.1393,20.98513 20.80979,39.69842 42.34375,43.28125 24.26335,4.91692 48.62914,-6.58767 65.75,-23.25 4.4391,-4.10803 8.46296,-8.8222 11.78125,-13.9375 -6.68495,-8.75743 -13.3922,-17.49803 -20.125,-26.21875 -11.13231,10.99082 -23.33577,25.5384 -40.53125,24.6875 -7.92709,0.11803 -11.86634,-9.89749 -10.375,-16.125 22.43912,-0.30019 46.44133,-5.42681 63.125,-21.25 15.30063,-15.92675 15.33524,-46.05286 -3.96875,-58.8125 -19.79729,-13.35143 -46.73638,-9.19177 -66.5625,1.90625 -14.4112,8.03369 -26.3165,21.40939 -33.65625,35.40625 -3.61312,-21.49704 -19.88532,-42.65959 -42.625001,-45.28125 -8.580597,-1.02259 -17.558607,0.38388 -25.1875,4.28125 2.845612,-18.70082 5.716495,-37.39777 8.59375,-56.09375 -0.8125,0.0417 -1.625,0.0833 -2.4375,0.125 z m -266.062499,0.1875 c -11.59252,1.58746 -21.8026,8.99987 -33.74613,8.77539 -4.61179,0.42976 -9.25295,0.51812 -13.87887,0.28711 -1.76915,11.91588 -3.59845,23.82331 -5.5,35.71875 4.79274,1.86604 10.47992,-0.7831 14.9375,1.46875 -2.53254,26.00269 -8.00008,51.67972 -11.27491,77.57571 -3.52591,23.15139 -7.06345,46.30105 -10.56884,69.45554 15.70833,0 31.41667,0 47.125,0 3.99193,-12.49731 5.55884,-27.21881 9.40625,-38.65625 4.90357,18.92613 18.81645,38.56613 39.625,40.5625 18.62259,0.93905 36.01832,-9.96302 47.71875,-23.59375 1.47376,0.53468 3.32369,4.87814 5.40625,6.53125 22.137983,23.63484 62.876729,22.55477 86.593749,1.65625 23.8971426,-20.58093 33.972545,-54.59886 28.90625,-85.375 -3.5585594,-19.41926 -17.9529335,-37.07908 -37.78125,-41.0625 -21.386902,-5.49411 -45.398689,-0.90463 -62.03125,13.8125 -18.531469,15.27371 -26.902509,39.55606 -29.406249,62.9375 -0.55953,7.19913 -0.28067,14.47034 1.09375,21.53125 -2.95751,-2.60948 -4.43071,-13.16361 -8.875,-8.03125 -4.31283,3.05467 -10.09981,9.34412 -15.71875,6 -11.59234,-13.39884 -11.57215,-32.12368 -13.3125,-48.8125 2.25596,-1.76303 3.65365,-6.85415 7,-6.15625 11.08856,10.23583 32.06741,6.98458 37.625,-7.6875 6.67297,-13.34209 -0.82967,-33.28679 -16.78125,-35 -20.10935,-3.37214 -37.79126,10.43795 -51.84375,23.125 -3.74209,3.64929 -7.22109,7.40949 -10.5625,11.46875 4.35236,-28.84402 8.71907,-57.68589 13.0625,-86.53125 -5.73967,0.0367 -11.47954,-0.0949 -17.21875,0 z m 497.375,0 c -11.27872,1.47878 -21.15658,8.71317 -32.75,8.6875 -5.00256,0.51328 -10.03915,0.55788 -15.0625,0.4375 -1.52824,11.90685 -3.31355,23.77985 -5.0625,35.65625 4.73251,1.83199 10.18437,-0.72032 14.65625,1.40625 -2.27173,23.42123 -6.91407,46.61207 -9.98264,69.91069 -2.65957,18.11961 -6.72499,36.26143 -6.51736,54.58931 3.06388,17.58101 22.88287,27.96256 39.5625,24.40625 14.96295,-2.07069 28.04713,-10.96141 38.3125,-21.625 4.83701,16.74164 24.36217,25.33044 40.70687,21.34629 14.45471,-2.5646 27.07343,-11.39127 37.01188,-21.87754 -4.87156,-8.70904 -9.732,-17.42437 -14.5625,-26.15625 -5.51037,-0.027 -9.24147,5.95244 -14.3125,5.78125 -0.75702,-9.01002 3.25058,-17.51867 3.35531,-26.54768 6.46473,-42.00176 12.78826,-84.02538 19.33219,-126.01482 -10.90541,-0.15153 -22.22416,-0.9994 -32.15625,4.375 -10.28485,4.62912 -21.86183,4.88278 -33.03125,4.75 -1.79151,11.94033 -3.35984,23.91345 -5.21875,35.84375 4.81992,1.40929 10.10249,-0.81066 14.71875,1.21875 -2.4667,24.62339 -7.25616,49.00815 -10.59375,73.5 -2.43905,16.96503 -6.23776,33.97426 -5.875,51.125 -4.5706,-7.98902 -9.01846,-16.05268 -13.5625,-24.0625 -5.51238,0.0628 -9.10421,5.83788 -14.25,5.96875 -0.8203,-7.22051 2.74959,-14.21164 2.64113,-21.49675 6.71015,-43.74113 13.33514,-87.49557 20.14012,-131.222 -5.83342,0.0366 -11.66703,-0.0948 -17.5,0 z m -718.5625,51.21875 c -8.69137,-0.23573 -17.44156,3.32548 -24.875,6.375 -4.9696,-7.46744 -15.03663,-4.33062 -22.09375,-2.71875 -11.13277,3.26732 -22.1523,7.39594 -33.875,6.75 -5.31636,0.048 -9.27203,4.92967 -8.27592,10.11355 -1.32371,8.60972 -2.59919,17.22714 -4.00533,25.82395 4.99727,1.7597 10.68566,-0.93016 15.375,1.5 -2.11169,26.20008 -8.05311,52.00418 -11.30102,78.02964 -0.0659,5.01199 -3.40821,12.85028 -1.54273,16.18911 15.64583,0 31.29167,0 46.9375,0 5.08465,-31.33902 9.0036,-63.24035 14.875,-94.21875 4.39949,-3.16464 11.5921,-6.76875 16.28125,-2.5625 1.69003,9.64261 -3.14811,18.91951 -3,28.5625 -2.64735,17.35577 -9.15374,35.98794 -2.40625,53.125 8.58663,17.19249 32.27387,22.13082 48.5,12.78125 8.44707,-4.12796 15.55384,-10.51901 21.96875,-17.21875 13.80826,20.25291 42.04085,26.33195 64.5,18.375 16.88321,-5.64245 31.40652,-17.21227 42.53125,-30.84375 5.24271,-3.98341 -0.20651,-7.79141 -2.88832,-11.6068 -4.77899,-6.25993 -9.5778,-12.50479 -14.39293,-18.73695 -11.44651,11.42166 -24.39892,26.74084 -42.28125,24.53125 -6.89385,-1.21215 -9.91271,-10.19471 -8.59375,-15.9375 22.89528,-0.33835 47.63028,-5.57031 64.125,-22.4375 14.86052,-16.29738 13.5033,-46.12331 -5.75,-58.34375 -19.35793,-12.00888 -45.15809,-8.62071 -64.40461,1.89332 -32.05236,17.35714 -51.44068,57.11154 -42.12664,93.04418 -2.55236,-3.74353 -4.49495,-11.64349 -8.75,-5.5 -1.56517,1.29109 -4.31665,5.02616 -6.0625,4.1875 -0.0991,-11.34705 4.10679,-22.29746 4.3125,-33.59375 2.50896,-16.60371 8.82039,-35.43308 -0.28125,-51.03125 -6.83001,-10.7495 -19.77629,-17.12373 -32.5,-16.53125 z m 616.15625,35.25 c 4.75733,2.43327 1.29222,9.09223 -2,11.34375 -4.6474,4.47525 -11.26901,6.57003 -17.59375,7.65625 3.60768,-8.33422 9.31501,-18.64785 19.59375,-19 z m -498.65625,0.0313 c 4.72581,1.98934 1.70872,8.60358 -1.4375,10.84375 -4.73339,4.89883 -11.46234,6.9283 -18,8.125 3.58769,-8.26661 9.17495,-18.64843 19.4375,-18.96875 z m 253.156249,2.2812 c 7.857057,1.66179 7.450234,11.69215 6.684484,17.99531 -1.544619,16.20448 -4.226308,33.30102 -13.590734,46.97344 -3.487527,4.16492 -12.553361,6.56504 -14.78125,0 -4.518459,-11.53366 0.581329,-23.94057 1.99818,-35.69494 2.354043,-10.39872 5.434845,-23.08343 15.28307,-28.77381 1.439588,-0.27925 2.942765,-0.61516 4.40625,-0.5 z m 123.4375,2.0625 c 6.917912,2.2288 6.495814,11.37074 6.114964,17.27862 -1.367904,17.54925 -5.17961,37.82941 -20.208714,48.75263 -3.305098,1.28387 -7.464875,1.12499 -10.1875,-1.3125 3.282882,-21.97709 4.754165,-46.74809 20.625,-63.53125 1.074489,-0.70689 2.34502,-1.28807 3.65625,-1.1875 z"
         style="font-size:221.39109802px;font-style:normal;font-weight:bold;line-height:125%;letter-spacing:0px;word-spacing:0px;fill:#000000;fill-opacity:1;stroke:none;font-family:Sans;-inkscape-font-specification:Sans Bold" />
      <text
         transform="scale(0.91575545,1.0919946)"
         sodipodi:linespacing="125%"
         id="text4213"
         y="276.12286"
         x="-561.16388"
         style="font-size:221.39109802px;font-style:normal;font-weight:bold;line-height:125%;letter-spacing:0px;word-spacing:0px;fill:#ffff00;fill-opacity:1;stroke:none;font-family:Sans;-inkscape-font-specification:Sans Bold"
         xml:space="preserve"><tspan
           style="font-style:italic;font-variant:normal;font-weight:bold;font-stretch:normal;fill:#ffff00;font-family:URW Bookman L;-inkscape-font-specification:URW Bookman L Bold Italic"
           y="276.12286"
           x="-561.16388"
           id="tspan4215"
           sodipodi:role="line">nekobell</tspan></text>
    </g>
    <path
       style="font-size:72.51067352px;font-style:normal;font-variant:normal;font-weight:normal;font-stretch:normal;line-height:125%;letter-spacing:0px;word-spacing:0px;fill:#000000;fill-opacity:1;stroke:none;font-family:STIXIntegralsSm;-inkscape-font-specification:STIXIntegralsSm"
       d="m 184.50476,1010.0543 c -4.8686,-0.3366 -9.89961,3.9142 -9.42149,9.0568 -0.58861,-2.9508 -1.17293,-5.9023 -1.7372,-8.8581 -1.87262,0 -3.74524,0 -5.61786,0 -1.99261,3.1558 -3.97414,6.3188 -5.9541,9.4828 0.68195,-3.1614 1.36953,-6.3216 2.05241,-9.4828 -2.19017,0 -4.38035,0 -6.57052,0 -0.97911,1.3988 -1.96193,2.7948 -2.94904,4.1878 -0.37459,-1.3963 -0.74927,-2.7926 -1.12777,-4.1878 -2.05242,0 -4.10483,0 -6.15724,0 -1.03876,4.717 -2.02889,9.4428 -3.06811,14.1531 1.96483,-0.5863 4.19981,0.4576 6.03115,-0.6813 0.2574,-1.0525 0.48378,-2.4249 0.74251,-3.2793 0.0647,1.1237 1.06303,1.8674 2.15048,1.6822 1.01938,0.058 2.23953,-0.2656 2.77391,-1.1072 -0.0895,0.9905 -1.20524,2.4848 -0.063,3.1869 3.28422,0.1267 6.64322,-0.018 9.95385,0.035 0.43198,-0.8995 1.08653,-2.6944 2.40266,-2.0513 0.60804,0.1378 1.54809,-0.3586 1.98236,0.1136 -0.27881,1.5201 1.54386,2.4268 2.80193,1.9235 1.12541,0.038 2.99595,0.2094 3.07512,-1.377 0.11086,-0.959 -0.59417,-1.9076 -0.55338,-2.7681 0.83004,2.9626 3.98377,4.5666 6.87873,4.3793 2.30999,0.052 4.59946,-0.4614 6.6686,-1.4692 0.55182,-2.5465 1.11183,-5.0912 1.63212,-7.6444 -0.92812,0.079 -0.11138,-1.0787 -0.028,-1.6041 0.48185,-1.1606 0.0846,-2.9479 -1.37995,-3.0166 -1.45966,-0.4537 -2.98522,-0.7172 -4.51811,-0.6743 z m 38.65261,0 c -3.21179,-0.1828 -6.39312,1.6468 -7.97849,4.4503 0.28507,-1.9617 -1.19464,-3.778 -3.11715,-3.9748 -2.81702,-0.622 -5.71604,-0.063 -8.5669,-0.3194 -0.78536,3.592 -1.56384,7.1776 -2.34661,10.7746 0.0616,-0.7896 -0.49372,-1.5947 -1.31691,-1.5757 1.27421,-0.086 1.62883,-1.4102 1.69517,-2.4772 0.36224,-0.5806 0.0985,-1.4113 -0.16812,-1.8383 1.48935,-0.5961 1.43361,-2.6578 1.46401,-3.989 -0.73193,-1.5053 -2.75559,-0.7101 -4.03476,-0.8275 -2.36536,0.05 -4.7308,-0.1057 -7.0959,-0.017 -1.01439,4.6577 -2.02951,9.3163 -3.03309,13.9828 3.88339,0.067 8.09447,-0.1339 11.77511,0.099 4.17672,-0.5894 8.98092,1.0055 12.6367,-1.7106 0.68805,-0.5332 1.14527,-1.4861 1.40096,-2.179 0.99508,2.814 4.06204,4.2082 6.87174,4.0457 2.00563,-0.022 4.01201,-0.6488 5.64588,-1.8241 -1.45877,1.5462 -0.57615,1.7959 1.16981,1.5686 1.48502,0 2.97004,0 4.45507,0 0.42637,-0.9989 1.16184,-2.7142 2.52173,-2.0442 0.57073,0.097 1.4613,-0.3383 1.86329,0.099 -0.2725,1.5223 1.53514,2.4264 2.79492,1.9306 1.15103,0.1568 2.25489,-0.3499 3.34831,0.057 1.0377,-0.021 2.05658,-0.1627 3.09613,0.028 1.02813,0.1869 1.72871,-0.7129 1.76521,-1.6609 0.24438,-0.8683 0.21342,-2.044 0.67947,-2.6901 1.18428,1.0306 0.45653,3.2975 2.08043,4.06 0.99062,0.4863 2.11617,-0.029 3.15918,0.3052 4.16436,-0.477 8.98918,0.7306 12.98694,-1.2705 3.6216,-1.6905 5.57817,-6.8827 3.11014,-10.3132 -2.22954,-2.8514 -6.27008,-2.5361 -9.49854,-2.4559 -1.01387,-0.01 -2.62026,-0.3801 -2.907,1.0008 -0.52844,3.3484 -1.48453,6.6796 -2.12947,10.0364 -0.3651,-1.0792 -0.82841,-2.3635 -1.21883,-3.3005 2.65831,-1.5535 2.38959,-6.4071 -0.70943,-7.2921 -2.89239,-0.9555 -5.97104,-0.2302 -8.94322,-0.5298 -0.75667,3.4371 -1.45903,6.8808 -2.22053,10.3061 -0.66101,-3.1688 -1.14225,-6.4321 -1.8843,-9.575 -0.615,-1.4313 -2.3162,-0.355 -3.41802,-0.6938 -1.2185,-0.1045 -2.76162,-0.1068 -3.1582,1.3755 -1.23542,1.9709 -2.4725,3.9407 -3.70686,5.9122 0.63291,-2.851 -0.90016,-6.1464 -3.7826,-6.9701 -1.04032,-0.3977 -2.17334,-0.5364 -3.28527,-0.5039 z m 88.24677,0 c -3.23041,-0.1626 -6.45374,1.4875 -8.21666,4.2445 0.29585,-1.3819 0.59986,-2.7619 0.88961,-4.1451 -1.98287,0.4366 -4.1589,-0.4655 -6.00313,0.5962 -0.3143,1.0294 -0.5356,3.2427 -0.89087,3.549 -0.50034,-1.3487 -0.98269,-2.703 -1.49777,-4.0459 -1.90298,0 -3.80596,0 -5.70893,0 -0.77441,3.533 -1.55581,7.337 -2.3186,10.6894 0.13294,-0.7704 -0.71259,-1.5706 -1.17681,-1.5473 1.48079,-0.2484 1.46621,-1.9958 1.68816,-3.1515 0.18328,-0.6417 -0.71873,-1.2137 0.18213,-1.4054 0.99124,-0.9251 0.96843,-2.4977 0.98067,-3.7263 -0.71884,-1.5121 -2.7576,-0.7218 -4.0347,-0.8315 -2.37004,0.045 -4.74012,-0.1123 -7.10997,-0.02 -0.98206,4.6671 -2.04395,9.3015 -3.00507,13.9828 3.92737,0 7.85474,0 11.78211,0 0.35469,0.2384 1.43757,-0.1945 2.12246,-0.021 1.2753,0.036 3.02514,0.3415 3.90169,-0.7027 0.26548,-1.176 0.52988,-2.3426 0.77053,-3.5276 0.52982,1.416 1.03487,2.8403 1.57609,4.2516 1.89597,0 3.79194,0 5.68791,0 0.33863,-1.4483 0.70202,-3.4548 1.03672,-4.5497 0.59333,3.0543 3.78035,4.9248 6.73163,4.7626 2.38444,0.1046 4.77118,-0.4303 6.91376,-1.4621 0.54617,-2.5473 1.10352,-5.092 1.62512,-7.6444 -0.93934,0.044 -0.0522,-1.179 0.007,-1.7035 0.4335,-1.1423 0.009,-2.8533 -1.41498,-2.9172 -1.45966,-0.4509 -2.98429,-0.718 -4.51811,-0.6743 z m 27.10166,0.149 c -1.78456,0.3247 -3.76351,-0.4811 -5.39371,0.575 -0.27228,1.2479 -0.55963,2.4799 -0.81957,3.7334 -0.52376,-1.4193 -1.04372,-2.84 -1.56908,-4.2587 -1.89597,0 -3.79194,0 -5.68791,0 -1.04408,4.711 -2.06815,9.4276 -3.07512,14.1531 1.96304,-0.5762 4.17525,0.4311 6.02415,-0.6601 0.3143,-1.0294 0.5356,-3.2427 0.89087,-3.549 0.50034,1.3487 0.98269,2.7031 1.49777,4.0459 1.90064,0 3.80129,0 5.70193,0 1.00962,-4.6967 2.03001,-9.3911 3.03309,-14.0892 -0.20081,0.017 -0.40161,0.033 -0.60242,0.05 z m 10.14999,-0.021 c -3.05466,0.2455 -6.11816,-0.032 -9.17632,0.078 -1.00613,4.6682 -2.04294,9.3124 -3.04009,13.9828 4.02777,0 8.05555,0 12.08332,0 -0.72605,-1.4931 1.27585,-3.1911 -0.063,-4.5213 -0.45181,-0.3812 -1.04902,-0.2339 -0.21715,-0.5111 1.11695,-0.5841 0.99818,-2.0827 1.20483,-3.1585 0.0655,-0.5621 -0.65108,-1.0182 0.1471,-1.1925 1.01962,-0.9055 1.00199,-2.5144 1.0157,-3.7476 -0.27979,-0.7885 -1.22027,-0.9775 -1.95435,-0.9298 z m -208.14833,0.4258 c -0.9854,4.5399 -1.98043,9.0856 -2.93502,13.635 2.01039,0 4.02077,0 6.03115,0 1.01629,-4.6689 2.04719,-9.3172 3.0471,-13.9899 -2.02206,0 -4.04412,0 -6.06617,0 l -0.0482,0.2219 -0.0289,0.133 z m 178.01358,0 c -0.99176,4.5504 -1.98998,9.082 -2.97004,13.635 2.02439,0 4.04878,0 6.07318,0 1.00276,-4.6641 2.0095,-9.3273 3.01908,-13.9899 -2.01506,0 -4.03011,0 -6.04517,0 l -0.0482,0.2219 -0.0289,0.133 z m -134.06532,4.209 c 0.90234,-0.033 1.79215,0.1637 2.64082,0.4756 -1.35045,-0.024 -3.03633,0.048 -4.18188,-0.036 0.47168,-0.2583 1.00107,-0.4255 1.54106,-0.4401 z m 126.89939,0 c 0.90439,-0.032 1.79708,0.1627 2.64782,0.4756 -1.3617,-0.019 -3.01171,0.038 -4.19589,-0.028 0.46831,-0.2742 1.00875,-0.4236 1.54807,-0.4472 z m -88.37986,0.01 c 1.51033,-0.043 1.34909,2.0087 0.94565,3.0094 -0.39617,1.2475 -2.1088,2.4762 -3.27826,1.5119 -0.96587,-1.6662 0.27571,-4.5341 2.33261,-4.5213 z m 26.61833,0.1561 c 0.40475,-0.081 0.72231,0.1147 0.20314,0.2342 -0.25682,0.1146 -0.25205,-0.037 -0.20314,-0.2342 z m 13.55433,0.099 c 1.18025,-0.1239 2.31653,0.9734 1.77222,2.1861 -0.31465,1.263 -1.85978,2.1903 -2.96304,2.03 0.3293,-1.3889 0.80227,-2.7549 0.8756,-4.1877 0.10589,-0 0.20895,-0.031 0.31522,-0.028 z m -80.73759,0.7807 c 0.18787,1.2252 -1.17989,2.6376 -0.049,3.7122 -0.27068,0.1577 -1.14329,-0.4896 -1.12077,-1.0718 -0.15615,-1.0691 0.30848,-2.1718 1.12077,-2.8533 l 0.049,0.2129 z m 126.89938,0 c 0.17961,1.2375 -1.21222,2.714 0.007,3.7761 -1.59379,-0.2138 -1.41857,-2.4918 -0.57439,-3.4425 0.13292,-0.076 0.57088,-0.8668 0.56739,-0.3336 z m -94.99942,0.9015 c 0.0717,0.725 -0.44797,0.2553 -0.028,-0.043 l 0.049,-0.057 -0.021,0.099 z m -6.69661,2.4416 c 0.39742,-0.01 1.55165,-0 0.64444,0.3336 -0.34903,0.1471 -1.15949,0.1375 -0.64444,-0.3336 z m -11.13767,0.1562 c 1.13218,-0 -0.56947,0.069 -0.53236,0.021 0.17751,0.018 0.35378,-0.024 0.53236,-0.021 z m 86.22237,0.01 c 1.33443,0.01 -0.64812,-0.054 0,0 z m 61.34825,0 c 1.25,0.028 -0.5604,0.031 0,0 z m -56.94922,4.2232 c -0.0951,-0.5758 0.19562,-1.1149 0.35725,-1.6467 -0.11908,0.5489 -0.23817,1.0978 -0.35725,1.6467 z m -86.50256,-0.014 c -0.11291,-0.5661 0.1977,-1.0847 0.34323,-1.6041 -0.11441,0.5347 -0.22882,1.0694 -0.34323,1.6041 z"
       id="text4246-9"
       inkscape:connector-curvature="0" />
    <text
       xml:space="preserve"
       style="font-size:16.36115837px;font-style:normal;font-variant:normal;font-weight:normal;font-stretch:normal;line-height:125%;letter-spacing:0px;word-spacing:0px;fill:#ff2a2a;fill-opacity:1;stroke:none;font-family:STIXIntegralsSm;-inkscape-font-specification:STIXIntegralsSm"
       x="131.68025"
       y="1078.2848"
       id="text4246"
       sodipodi:linespacing="125%"
       transform="scale(1.0541808,0.94860386)"><tspan
         sodipodi:role="line"
         id="tspan4248"
         x="131.68025"
         y="1078.2848"
         style="font-style:italic;font-variant:normal;font-weight:bold;font-stretch:normal;fill:#ff2a2a;font-family:Sans;-inkscape-font-specification:Sans Bold Italic">IMAGEBOARD ENGINE</tspan></text>
  </g>
</svg>
